{
  "asset": {
    "version": "2.0",
    "generator": "Islamic Pattern Generator"
  },
  "scene": 0,
  "scenes": [
    {
      "nodes": [
        0
      ]
    }
  ],
  "nodes": [
    {
      "mesh": 0,
      "name": "minaret"
    }
  ],
  "meshes": [
    {
      "primitives": [
        {
          "attributes": {
            "POSITION": 1
          },
          "indices": 0
        }
      ]
    }
  ],
  "accessors": [
    {
      "bufferView": 0,
      "componentType": 5123,
      "count": 756,
      "type": "SCALAR",
      "max": [
        132
      ],
      "min": [
        0
      ]
    },
    {
      "bufferView": 1,
      "componentType": 5126,
      "count": 133,
      "type": "VEC3",
      "max": [
        0.8999999761581421,
        0.8999999761581421,
        7.0
      ],
      "min": [
        -0.8999999761581421,
        -0.8999999761581421,
        0.0
      ]
    }
  ],
  "bufferViews": [
    {
      "buffer": 0,
      "byteOffset": 0,
      "byteLength": 1512,
      "target": 34963
    },
    {
      "buffer": 0,
      "byteOffset": 1512,
      "byteLength": 1596,
      "target": 34962
    }
  ],
  "buffers": [
    {
      "uri": "data:application/octet-stream;base64,",
      "byteLength": 3108
    }
  ]
}